<svg id="Layer_1" data-name="Layer 1" xmlns="http://www.w3.org/2000/svg" viewBox="0 0 720.78 407.06"><defs><style>.cls-1,.cls-2,.cls-3{fill:#fff;}.cls-2,.cls-3{stroke:#fff;}.cls-2{stroke-width:3px;}.cls-3{stroke-width:2px;}</style></defs><title>Artboard 1</title><path class="cls-1" d="M325.26,86.3c6.36-14.26,17.6-10.37,19.55-5.14L340.64,84c-2.36-4.15-6.7-3.06-9.69,3.76l-2.25,5.13c-2.46,5.67-5.3,10.73-12.54,11.86,3.53,2.93,4.25,7.51,1.31,14.13L309.35,137c-.8,1.69-.86,4.93,1.49,5.79l-2.32,5.14c-5.77-2.19-6.65-8.3-4.44-13.23l8.11-18.05c2.58-5.75,1.21-9.68-3.45-11.78l-4,8.92c-16.22,36-52.67,18.38-42.59-3.81,3.69-8.12,10.37-9.12,10.37-9.12l1.71,4.8a13.25,13.25,0,0,0-6.76,6.56c-7.12,15.7,19.36,27.34,32-.86l11.11-24.75c-6.79,4.37-18.14,5.71-20.67,11.33-2.69,5.89,3.29,7.67,3.29,7.67l-2.06,4.53c-4.58-1.28-10.24-6.13-6.71-14,4.47-10,19.44-8.1,30.19-18.55l4,5.47-8.16,18.19c5.88.69,9.82-3.71,12.61-9.93Z"/><path class="cls-1" d="M343.74,101.85a3.28,3.28,0,0,0-.77-3.73l-1-1.06c-6.34,10.65-14.3,23.84-17.17,27.94a9.66,9.66,0,0,1-2.72-2c4.22-6.11,12.85-20.92,17.3-28.6l-.58-.65c-2.67-2.83-2.74-6.63.69-10.4l3.83,3.42a2.6,2.6,0,0,0,0,3.87l4.16,4.1c2.44,2.4,3.76,4.65,1.87,8.91l-5.46,12.3c-1.27,2.77-.33,3.71,1.14,3.56,2.94-.3,7.15-5.18,11.38-11.22l.39-.56a5.8,5.8,0,0,1,2.73,2c-4.85,6.94-10.57,13.46-16.07,14s-7.81-3.79-5.49-9Z"/><path class="cls-1" d="M373.21,106a5.81,5.81,0,0,1,2.73,2c-4.85,6.94-10.57,13.46-16.07,14s-7.81-3.79-5.49-9l11-24.48,6.64-.67-11.73,26.3c-1.27,2.77-.33,3.71,1.14,3.56,2.94-.3,7.16-5.18,11.38-11.22Zm-1.48-29.28a3.89,3.89,0,0,1,4.29,3.5,3.84,3.84,0,0,1-3.51,4.23A3.78,3.78,0,0,1,368.29,81,3.84,3.84,0,0,1,371.72,76.74Z"/><path class="cls-1" d="M371.27,115.51l3.93-2.59s1.14,2.34,3.38,2.11c6.32-.64,3.66-12.89,5.58-20.06-2,3.37-4.9,8.37-8.22,13.1a9.65,9.65,0,0,1-2.72-2c5.29-7.64,10.42-16.93,12.78-21l5.25,2.18c-3.23,8.91-1.79,18.58-3.26,25.11a41.71,41.71,0,0,0,7.25-8l.4-.56a4.22,4.22,0,0,1,2.72,2c-4.39,6.32-10.56,12.37-17.24,13.95-.06,0-.12.08-.19.08a18.2,18.2,0,0,1-1.84.32A7.28,7.28,0,0,1,371.27,115.51Z"/><path class="cls-1" d="M399.74,81.9l6-.61,5.16-11.5,6.64-.67-5.16,11.5,5.49-.56-1.59,3.39-5.43.55L399.14,110.3c-1.27,2.77-.33,3.71,1.14,3.56,2.94-.3,7.15-5.18,11.38-11.22l.39-.56a5.81,5.81,0,0,1,2.72,2c-4.85,6.94-10.57,13.46-16.07,14s-7.81-3.79-5.5-9l11-24.48-6.07.62Z"/><path class="cls-1" d="M428.47,100.42a5.81,5.81,0,0,1,2.72,2c-4.85,6.94-10.57,13.46-16.07,14s-7.81-3.79-5.5-9l11-24.48,6.64-.67-11.73,26.29c-1.27,2.77-.33,3.71,1.14,3.56,2.94-.3,7.15-5.18,11.38-11.22ZM427,71.14a3.89,3.89,0,0,1,4.29,3.5,3.84,3.84,0,0,1-3.51,4.23,3.78,3.78,0,0,1-4.22-3.44A3.84,3.84,0,0,1,427,71.14Z"/><path class="cls-1" d="M459.83,97.24a5.8,5.8,0,0,1,2.72,2c-4.85,6.94-10.57,13.46-16.07,14s-7.81-3.79-5.49-9l7.1-15.89c2.38-5.21-2.33-6.41-11.2,7.33l-8.36,18.73-6.71.68,15.22-33.81,6.64-.67-2.05,4.6c3-3.79,5.82-5.62,8.69-5.92,3.71-.38,6.82,3,4.46,8.33l-7.88,17.77c-1.27,2.77-.33,3.71,1.14,3.56,2.94-.3,7.15-5.18,11.38-11.22Z"/><path class="cls-1" d="M96.1,300.19a11.23,11.23,0,0,1,3.16,3.26,9.92,9.92,0,0,1,1.53,5.7v8.14H63.12V310a15.2,15.2,0,0,1,.71-5.29,10.87,10.87,0,0,1,1.63-3q.92-1.12,1.73-2.24a4.92,4.92,0,0,0,.81-3q-1-5.5-1.43-9.16t-.81-5.8a7.43,7.43,0,0,0-1.12-3.05,2.55,2.55,0,0,0-2.14-.92H43.78a6.32,6.32,0,0,0-2.65.41c-.54.27-.88,1-1,2.24a26.94,26.94,0,0,0-.31,3.66,54.21,54.21,0,0,1-.51,5.5q-.41,3.26-.81,7.13a6.32,6.32,0,0,0,.71,3.36q.71,1.12,1.43,2.34A28.62,28.62,0,0,1,42,305.07a12.82,12.82,0,0,1,.71,4.89v7.33H5.7v-8.14a9.44,9.44,0,0,1,1-4.78,14.68,14.68,0,0,1,2.24-3q1.22-1.22,2.54-2.44a7.16,7.16,0,0,0,1.93-3.05l11.4-53.75q2-10,4.17-19.65t3.77-17.31l2.65-12.42q1-4.78,1-5v-1a3.81,3.81,0,0,0-.92-2.65q-.92-1-2-2.34a14.13,14.13,0,0,1-2-3.36,15.57,15.57,0,0,1-.92-6.11V165q10.79,0,17.61-.1A54.07,54.07,0,0,1,59,165.6a11.56,11.56,0,0,1,6,2.75,12.66,12.66,0,0,1,3,5.8q.2.82,1.32,6.41t3,14.25q1.83,8.66,4.07,19.55t4.48,22.09q5.29,26.27,12.22,59.46a5.91,5.91,0,0,0,1.22,2.54A14.43,14.43,0,0,0,96.1,300.19ZM60.88,258.45q2.64,0,2.24-2.24l-4.89-28.1q-1-5.29-1.83-10.38t-1.53-9.16q-.72-4.07-1.12-6.62c-.27-1.7-.41-2.61-.41-2.75h-.41q0,.21-.61,4.17T50.7,213.45q-1,6.11-2.24,13.34t-2.34,13.54q-1.12,6.31-1.83,10.79t-.71,5.09q-.21,1.43.31,1.83a5.41,5.41,0,0,0,2.75.41H60.88Z"/><path class="cls-1" d="M202.6,165v8.55a32.4,32.4,0,0,1-.41,5.29,7,7,0,0,1-2.65,4.28,12.26,12.26,0,0,0-1.32,1.53,4.61,4.61,0,0,0-.51,2.55V312.61a5.36,5.36,0,0,1-1,3.36,3.85,3.85,0,0,1-3.26,1.32H181.62a4.87,4.87,0,0,1-4.38-2.44,31.79,31.79,0,0,1-2.75-5.7q-.41-1.22-2.65-6.92t-5.19-13.54q-3-7.84-6.41-16.7t-6.31-16.39q-2.85-7.53-4.79-12.52t-1.93-5.19c0-.27-.07-.44-.2-.51s-.2.24-.2.92V295.1a4.92,4.92,0,0,0,.61,2.85,14.9,14.9,0,0,0,1.43,1.63A16.29,16.29,0,0,1,152.1,303a9.46,9.46,0,0,1,1.63,5.7v8.55H116.06v-8.55a10.32,10.32,0,0,1,1.43-5.29,15.67,15.67,0,0,1,3.67-4.28,9,9,0,0,0,1.43-1.73,5,5,0,0,0,.41-2.34V185.55a8.07,8.07,0,0,1-3.46-2,9.78,9.78,0,0,1-2.44-3.46,13.79,13.79,0,0,1-1-5.7V165h17.71a14.61,14.61,0,0,1,5.29,1.12q2.85,1.12,4.48,5.8.2.41,2.24,5.5t5,12.83q2.95,7.74,6.52,16.9t6.82,17.61q3.25,8.45,5.7,15.07t3.26,9.26c.13.41.27.44.41.1a3,3,0,0,0,.2-1.12V187.18a4.93,4.93,0,0,0-.61-2.85,15.87,15.87,0,0,0-1.43-1.63,16.05,16.05,0,0,1-3.26-3.46,9.42,9.42,0,0,1-1.63-5.7V165Z"/><path class="cls-1" d="M300,167q2.14,2,2.14,7.33v18.94h-9q-5.91,0-8.76-5.7a4.29,4.29,0,0,0-2.44-2.44,9.18,9.18,0,0,0-2.44-.41h-3.87a2.93,2.93,0,0,0-2.14.92,3.44,3.44,0,0,0-.92,2.55V295.1a7,7,0,0,0,.71,2.85,4.39,4.39,0,0,0,1.53,1.42,14.47,14.47,0,0,1,3.16,3.46,9.91,9.91,0,0,1,1.53,5.7v8.75H242.1v-8.75a9.44,9.44,0,0,1,1.63-5.7,16.12,16.12,0,0,1,3.26-3.46,4.44,4.44,0,0,0,1.53-1.42,5.75,5.75,0,0,0,.51-2.85V187.79a2.66,2.66,0,0,0-1-2.34,3.55,3.55,0,0,0-2-.71H242.5a7.69,7.69,0,0,0-2.55.71,4.78,4.78,0,0,0-2.54,2.34,19.67,19.67,0,0,1-2.34,4.28q-1.12,1.43-6.21,1.43H219.7V174.36q0-4.68,1.53-7T228,165h65Q297.89,165,300,167Z"/><path class="cls-1" d="M407,173.75v.2a11,11,0,0,1-4.68,9,13.15,13.15,0,0,0-1.43,1.22,3.27,3.27,0,0,0-.81,1.83V294.9a4.92,4.92,0,0,0,.61,2.85,9,9,0,0,0,1.63,1.63,14.48,14.48,0,0,1,3.16,3.46,9.91,9.91,0,0,1,1.53,5.7v8.75H369.15v-8.75a9.44,9.44,0,0,1,1.63-5.7,16.12,16.12,0,0,1,3.26-3.46,8,8,0,0,0,1.53-1.53,4.14,4.14,0,0,0,.51-2.34V250.71q0-2.85-3.05-2.85h-20a3.13,3.13,0,0,0-2.14.81,2.61,2.61,0,0,0-.92,2V295.1a4.47,4.47,0,0,0,.61,2.65,14.81,14.81,0,0,0,1.43,1.63,16.29,16.29,0,0,1,3.26,3.46,9.46,9.46,0,0,1,1.63,5.7v8.75H319.27v-8.75a9.44,9.44,0,0,1,1.63-5.7,16.14,16.14,0,0,1,3.26-3.46,6.69,6.69,0,0,0,1.53-1.63,5.21,5.21,0,0,0,.51-2.65V187.39a5.77,5.77,0,0,0-.51-2.85,6.81,6.81,0,0,0-1.53-1.63,10.48,10.48,0,0,1-4.89-9v-9h37.67v9a10.77,10.77,0,0,1-1.32,5,10.12,10.12,0,0,1-3.56,4,12.3,12.3,0,0,0-1.32,1.53,5.27,5.27,0,0,0-.71,2.34v38.28a2.65,2.65,0,0,0,1,2.34,3.52,3.52,0,0,0,2,.71h20.16a2.55,2.55,0,0,0,2.14-.92,3.39,3.39,0,0,0,.71-2.14V187.39a5.77,5.77,0,0,0-.51-2.85,6.81,6.81,0,0,0-1.53-1.63,11.56,11.56,0,0,1-4.89-9v-9H407Z"/><path class="cls-1" d="M463.42,318.92a52.81,52.81,0,0,1-14.15-1.83,33.11,33.11,0,0,1-11.61-5.7,28.23,28.23,0,0,1-7.94-9.67,29.46,29.46,0,0,1-3-13.54V193.7a29.47,29.47,0,0,1,3-13.54,27.3,27.3,0,0,1,7.94-9.57,35.7,35.7,0,0,1,11.61-5.7A50.25,50.25,0,0,1,463.42,163a51.36,51.36,0,0,1,14.25,1.93,35.6,35.6,0,0,1,11.71,5.7,27.37,27.37,0,0,1,7.94,9.57,29.52,29.52,0,0,1,3,13.54v94.48a29.5,29.5,0,0,1-3,13.54,28.3,28.3,0,0,1-7.94,9.67,33.05,33.05,0,0,1-11.71,5.7A54,54,0,0,1,463.42,318.92Zm13-122.78q0-7.94-3.67-10.69a15.19,15.19,0,0,0-9.37-2.75,14.84,14.84,0,0,0-9.16,2.75q-3.67,2.75-3.67,10.69v89.59q0,7.94,3.67,10.79a14.46,14.46,0,0,0,9.16,2.85,13.84,13.84,0,0,0,9.37-3.16q3.67-3.15,3.67-11.3Z"/><path class="cls-1" d="M606.56,165v8.55a32.45,32.45,0,0,1-.41,5.29,7,7,0,0,1-2.65,4.28,12.25,12.25,0,0,0-1.32,1.53,4.6,4.6,0,0,0-.51,2.55V312.61a5.36,5.36,0,0,1-1,3.36,3.85,3.85,0,0,1-3.26,1.32H585.59a4.87,4.87,0,0,1-4.38-2.44,31.83,31.83,0,0,1-2.75-5.7q-.41-1.22-2.65-6.92t-5.19-13.54q-3-7.84-6.41-16.7T557.9,255.6q-2.85-7.53-4.79-12.52t-1.93-5.19c0-.27-.07-.44-.2-.51s-.2.24-.2.92V295.1a4.92,4.92,0,0,0,.61,2.85,14.91,14.91,0,0,0,1.43,1.63,16.31,16.31,0,0,1,3.26,3.46,9.46,9.46,0,0,1,1.63,5.7v8.55H520v-8.55a10.32,10.32,0,0,1,1.43-5.29,15.67,15.67,0,0,1,3.67-4.28,9,9,0,0,0,1.42-1.73,5,5,0,0,0,.41-2.34V185.55a8.07,8.07,0,0,1-3.46-2,9.78,9.78,0,0,1-2.44-3.46,13.79,13.79,0,0,1-1-5.7V165h17.71a14.61,14.61,0,0,1,5.29,1.12q2.85,1.12,4.48,5.8.2.41,2.24,5.5t5,12.83q3,7.74,6.52,16.9t6.82,17.61q3.25,8.45,5.7,15.07t3.26,9.26c.13.41.27.44.41.1a3,3,0,0,0,.2-1.12V187.18a4.93,4.93,0,0,0-.61-2.85,15.93,15.93,0,0,0-1.42-1.63,16,16,0,0,1-3.26-3.46,9.42,9.42,0,0,1-1.63-5.7V165Z"/><path class="cls-1" d="M707.14,165v8.76a9.9,9.9,0,0,1-1.53,5.7,17.66,17.66,0,0,1-3,3.46,20.55,20.55,0,0,0-2,1.22,4,4,0,0,0-1.63,2.44q-.21.41-1.22,3.67t-2.65,8.25q-1.63,5-3.67,11.3t-4.07,12.83Q682.51,237.88,676.6,257v38.89a5.24,5.24,0,0,0,.71,2.34,6,6,0,0,0,1.32,1.32A16.28,16.28,0,0,1,681.9,303a9.46,9.46,0,0,1,1.63,5.7v8.55H646.87v-8.55a9.91,9.91,0,0,1,1.53-5.7,14.39,14.39,0,0,1,3.16-3.46,9.15,9.15,0,0,0,1.63-1.63,4.92,4.92,0,0,0,.61-2.85V257l-11.4-35q-2.24-6.51-4.28-12.83t-3.67-11.4l-2.65-8.25a25.47,25.47,0,0,1-1-3.56,5.5,5.5,0,0,0-1.22-1.83,10.18,10.18,0,0,0-1.43-1.22,12.84,12.84,0,0,1-3.05-3.46,10.43,10.43,0,0,1-1.43-5.7V165h35v9.57a16,16,0,0,1-.71,5.5,5.71,5.71,0,0,1-2.34,2.85,18.42,18.42,0,0,0-2,1.43A2.45,2.45,0,0,0,653,187a17.6,17.6,0,0,0,.61,2.65q.61,2.24,1.42,5.5t1.93,7.33q1.12,4.08,2.14,8.14,2.44,9.77,5.5,21.79H665q3.46-12.22,6.11-22,2.24-8.55,4.17-15.58t2.34-8a2,2,0,0,0-.92-2.44l-2.34-1.43a4.27,4.27,0,0,1-1.93-3.26,45.46,45.46,0,0,1-.31-5.9V165Z"/><line class="cls-2" x1="681.23" y1="105.56" x2="491.23" y2="105.56"/><path class="cls-1" d="M96.82,392.24v2.37H81.69V371.73h2.4v20.51Z"/><path class="cls-1" d="M154.33,371.73l-8.38,11.46,8.38,11.42h-3l-6.88-9.41-6.91,9.41h-3L143,383.19l-8.38-11.46h3l6.91,9.44,6.88-9.44Z"/><path class="cls-1" d="M257.08,383.15a11.44,11.44,0,0,1-11.42,11.46h-7.3V371.73h7.3A11.43,11.43,0,0,1,257.08,383.15Zm-2.37,0a9.07,9.07,0,0,0-9.06-9.06h-4.9v18.14h4.9A9.07,9.07,0,0,0,254.71,383.15Z"/><path class="cls-1" d="M294.84,371.73h15.07v2.4H297.24V382h9.25v2.4h-9.25v7.84h12.67v2.4H294.84Z"/><path class="cls-1" d="M364.41,388.31c0,3.49-3.33,6.3-7.39,6.3h-2c-4.06,0-7.39-2.82-7.39-6.3v-.13l0-.9h2.5l0,1c-.06,2.14,2.21,3.9,4.9,3.9h2c2.69,0,4.9-1.76,4.9-3.9s-2.21-3.94-4.9-3.94h-.9a10,10,0,0,1-4-.8c-2.53-1.47-3.74-3.26-3.74-5.54,0-3.46,3.33-6.3,7.39-6.3h.58c3.94,0,7.2,2.62,7.39,6l.06,1h-2.5l-.06-.86c-.16-2.08-2.3-3.68-4.9-3.68h-.58c-2.69,0-4.86,1.76-4.86,3.9s2,3.87,4.61,3.94h1.18v0a12.05,12.05,0,0,1,1.66.1h.1A6.52,6.52,0,0,1,364.41,388.31Z"/><path class="cls-1" d="M407.54,374.13v18.11h3.9v2.37H401.24v-2.37h3.9V374.13h-3.9v-2.4h10.21v2.4Z"/><path class="cls-1" d="M457.81,384.18h11.68l-.13,1.25c-.61,5.44-5.76,9.18-11.23,9.18a11.44,11.44,0,1,1,11.1-14.14h-2.46a9.06,9.06,0,1,0-.22,6.11h-8.73Z"/><path class="cls-1" d="M523.51,371.73h2.4v22.88H524l-14.34-18.33v18.33h-2.4V371.73h1.92l14.33,18.33Z"/><path class="cls-1" d="M563.67,371.73h15.07v2.4H566.07V382h9.25v2.4h-9.25v7.84h12.67v2.4H563.67Z"/><path class="cls-1" d="M621.78,384.37l11.55,10.24h-3.55l-10.88-9.7v9.7h-2.4V371.73h9.06a6.32,6.32,0,0,1,0,12.64ZM618.9,382h6.66a3.92,3.92,0,0,0,0-7.84H618.9Z"/><line class="cls-2" x1="231.23" y1="106.56" x2="41.23" y2="106.56"/><polygon class="cls-1" points="360.39 0 366.58 19.06 386.63 19.06 370.41 30.14 376.61 48.85 360.39 36.9 344.18 48.59 350.37 30.19 334.16 19.06 354.2 19.06 360.39 0"/><line class="cls-3" x1="680.39" y1="359.06" x2="40.39" y2="359.06"/><line class="cls-3" x1="680.39" y1="406.06" x2="40.39" y2="406.06"/></svg>